<svg xmlns="http://www.w3.org/2000/svg" viewBox="0 0 318 316" width="286" height="284" style="background-color: rgb(248, 249, 250);"><defs><style>@import url('https://fonts.googleapis.com/css2?family=Caveat+Brush&amp;family=Source+Code+Pro&amp;family=Source+Sans+Pro&amp;family=Crimson+Pro&amp;display=block');</style></defs><g id="1904e2d8-da4e-43f3-1bfa-081f0a2a06f0_svg" class="tl-centered-g" transform="translate(16.00, 16.00) rotate(0.00, 143.00, 142.00)"><path d="M 0.93,190.84 Q 0.93,190.84 0.95,184.75 0.96,178.66 0.98,171.02 1.00,163.37 1.02,155.33 1.04,147.29 1.06,139.15 1.08,131.01 1.10,122.85 1.12,114.68 1.14,106.51 1.16,98.34 1.19,90.16 1.21,81.99 1.23,73.82 1.25,65.64 1.27,57.47 1.29,49.29 1.31,41.12 1.33,32.94 1.35,24.77 1.37,16.59 5.10,10.79 8.83,4.98 15.90,3.50 22.98,2.02 30.91,1.65 38.84,1.27 46.98,1.18 55.13,1.09 63.33,1.07 71.53,1.05 79.75,1.04 87.97,1.04 96.18,1.04 104.40,1.05 112.62,1.05 120.84,1.05 129.07,1.06 137.29,1.06 145.51,1.07 153.73,1.07 161.95,1.07 170.17,1.08 178.39,1.08 186.61,1.09 194.83,1.09 203.05,1.10 211.27,1.10 219.49,1.10 227.71,1.11 235.93,1.11 244.15,1.12 252.37,1.12 260.60,1.12 268.82,1.13 274.64,4.85 280.46,8.58 281.90,15.58 283.33,22.57 283.65,30.41 283.97,38.24 284.01,46.28 284.04,54.32 284.01,62.42 283.97,70.52 283.91,78.63 283.86,86.74 283.80,94.86 283.74,102.97 283.67,111.09 283.61,119.21 283.55,127.32 283.49,135.44 283.42,143.55 283.36,151.67 283.30,159.79 283.24,167.90 283.17,176.02 283.11,184.14 283.05,192.25 282.99,200.37 282.93,208.49 282.86,216.60 282.80,224.72 282.74,232.84 282.68,240.95 282.61,249.07 282.55,257.18 282.49,265.30 278.75,271.10 275.01,276.89 267.96,278.41 260.91,279.93 253.02,280.35 245.13,280.78 237.03,280.93 228.92,281.08 220.76,281.16 212.60,281.24 204.43,281.30 196.25,281.36 188.08,281.41 179.90,281.47 171.72,281.52 163.54,281.58 155.36,281.63 147.19,281.68 139.01,281.74 130.83,281.79 122.65,281.85 114.47,281.90 106.29,281.95 98.11,282.01 89.94,282.06 81.76,282.11 73.58,282.17 65.40,282.22 57.22,282.28 49.04,282.33 40.86,282.38 32.69,282.44 24.51,282.49 16.33,282.55 10.52,278.84 4.71,275.12 3.24,268.09 1.77,261.05 1.42,253.17 1.06,245.28 0.98,237.18 0.90,229.08 0.90,220.93 0.90,212.77 0.91,204.60 0.92,196.43 0.94,188.26 0.96,180.08 0.98,171.91 1.00,163.74 1.02,155.56 1.04,147.39 1.06,139.21 1.08,131.04 1.11,120.07" fill="#d2d2d2" pointer-events="none"/><path d="M -2.17,190.83 Q -2.17,190.83 -2.05,184.74 -1.93,178.65 -1.81,171.01 -1.69,163.37 -1.57,155.33 -1.45,147.29 -1.53,139.15 -1.61,131.01 -1.69,122.84 -1.77,114.68 -1.85,106.50 -1.93,98.33 -2.02,90.16 -2.10,81.98 -2.18,73.81 -2.26,65.63 -2.34,57.46 -2.42,49.28 -2.50,41.11 -2.58,32.93 -2.61,24.59 -2.64,16.24 1.75,9.22 6.14,2.21 14.17,0.19 22.19,-1.81 30.42,-2.12 38.66,-2.43 46.88,-2.43 55.09,-2.42 63.31,-2.34 71.53,-2.26 79.74,-2.16 87.96,-2.06 96.18,-1.95 104.40,-1.85 112.63,-1.74 120.85,-1.64 129.07,-1.53 137.29,-1.43 145.51,-1.52 153.73,-1.62 161.95,-1.72 170.17,-1.82 178.39,-1.91 186.61,-2.01 194.83,-2.11 203.05,-2.21 211.27,-2.30 219.49,-2.40 227.71,-2.50 235.94,-2.60 244.16,-2.69 252.38,-2.79 260.77,-2.84 269.17,-2.88 276.20,1.51 283.23,5.91 285.20,13.85 287.18,21.79 287.43,29.94 287.69,38.08 287.63,46.20 287.56,54.31 287.42,62.42 287.28,70.53 287.12,78.65 286.97,86.76 286.80,94.88 286.64,103.00 286.48,111.11 286.31,119.23 286.15,127.34 285.99,135.46 286.03,143.57 286.07,151.69 286.10,159.81 286.14,167.93 286.18,176.04 286.22,184.16 286.26,192.28 286.30,200.39 286.34,208.51 286.38,216.63 286.42,224.75 286.46,232.86 286.50,240.98 286.53,249.10 286.52,257.39 286.51,265.68 282.11,272.66 277.71,279.65 269.72,281.71 261.73,283.76 253.53,284.13 245.33,284.49 237.16,284.54 228.99,284.59 220.81,284.57 212.63,284.55 204.46,284.51 196.28,284.46 188.10,284.42 179.92,284.37 171.74,284.33 163.56,284.28 155.38,284.23 147.20,284.18 139.02,284.34 130.85,284.49 122.67,284.65 114.49,284.81 106.31,284.96 98.13,285.12 89.96,285.27 81.78,285.43 73.60,285.58 65.42,285.74 57.25,285.89 49.07,286.05 40.89,286.20 32.71,286.36 24.35,286.46 15.99,286.57 8.97,282.19 1.94,277.81 -0.05,269.83 -2.06,261.84 -2.35,253.65 -2.65,245.45 -2.62,237.28 -2.60,229.11 -2.50,220.94 -2.41,212.77 -2.29,204.60 -2.18,196.43 -2.06,188.25 -1.93,180.08 -1.81,171.90 -1.69,163.73 -1.57,155.56 -1.45,147.38 -1.53,139.21 -1.61,131.03 -1.68,120.06 -1.76,109.09 -1.68,108.62 -1.60,108.16 -1.38,107.74 -1.16,107.33 -0.82,107.01 -0.48,106.68 -0.05,106.49 0.37,106.29 0.84,106.24 1.30,106.19 1.76,106.29 2.22,106.40 2.62,106.64 3.03,106.88 3.33,107.24 3.63,107.60 3.80,108.04 3.98,108.48 4.00,108.95 4.03,109.41 3.90,109.87 3.77,110.32 3.51,110.71 3.24,111.10 2.87,111.38 2.49,111.66 2.05,111.81 1.60,111.96 1.13,111.96 0.66,111.96 0.21,111.81 -0.22,111.66 -0.59,111.37 -0.97,111.09 -1.23,110.70 -1.49,110.31 -1.62,109.85 -1.74,109.40 -1.72,108.93 -1.69,108.46 -1.51,108.02 -1.34,107.59 -1.03,107.23 -0.73,106.87 -0.32,106.63 0.07,106.39 0.53,106.29 0.99,106.19 1.46,106.24 1.92,106.29 2.35,106.49 2.78,106.69 3.12,107.02 3.46,107.34 3.68,107.76 3.89,108.17 3.97,108.64 4.04,109.10 4.04,109.10 4.04,109.10 3.92,120.07 3.79,131.04 3.66,139.22 3.54,147.39 3.62,155.57 3.70,163.74 3.79,171.92 3.87,180.09 3.95,188.26 4.03,196.44 4.12,204.60 4.21,212.77 4.31,220.91 4.42,229.05 4.60,237.08 4.77,245.11 5.19,252.69 5.61,260.26 6.54,266.35 7.47,272.44 12.07,275.48 16.66,278.53 24.66,278.52 32.66,278.52 40.84,278.56 49.02,278.61 57.20,278.66 65.38,278.71 73.56,278.75 81.74,278.80 89.91,278.85 98.09,278.90 106.27,278.95 114.45,278.99 122.63,279.04 130.81,279.09 138.99,279.14 147.17,279.18 155.35,279.03 163.53,278.87 171.70,278.72 179.88,278.56 188.06,278.40 196.23,278.25 204.40,278.08 212.57,277.92 220.71,277.74 228.86,277.56 236.89,277.32 244.93,277.07 252.51,276.58 260.09,276.09 266.20,275.11 272.30,274.13 275.38,269.53 278.47,264.93 278.58,256.98 278.69,249.04 278.86,240.92 279.02,232.81 279.18,224.69 279.35,216.58 279.51,208.46 279.68,200.34 279.84,192.23 280.00,184.11 280.17,176.00 280.33,167.88 280.50,159.77 280.66,151.65 280.82,143.53 280.99,135.42 280.95,127.30 280.91,119.18 280.87,111.07 280.83,102.95 280.79,94.84 280.75,86.72 280.70,78.61 280.66,70.50 280.59,62.42 280.53,54.34 280.39,46.36 280.26,38.39 279.88,30.87 279.49,23.36 278.59,17.31 277.69,11.26 273.07,8.20 268.46,5.15 260.42,5.10 252.37,5.04 244.15,4.94 235.93,4.83 227.71,4.73 219.49,4.62 211.27,4.51 203.05,4.41 194.83,4.30 186.61,4.20 178.39,4.09 170.17,3.99 161.95,3.88 153.73,3.77 145.51,3.67 137.28,3.56 129.06,3.66 120.84,3.76 112.62,3.86 104.40,3.95 96.18,4.05 87.97,4.15 79.75,4.25 71.54,4.36 63.36,4.48 55.17,4.60 47.09,4.79 39.01,4.99 31.39,5.42 23.77,5.86 17.64,6.80 11.51,7.75 8.45,12.35 5.39,16.95 5.32,24.95 5.25,32.95 5.13,41.13 5.01,49.30 4.88,57.48 4.76,65.65 4.64,73.82 4.52,82.00 4.40,90.17 4.27,98.35 4.15,106.52 4.03,114.69 3.91,122.86 3.79,131.02 3.66,139.16 3.54,147.30 3.62,155.34 3.71,163.38 3.79,171.02 3.87,178.67 3.96,184.76 4.04,190.85 4.00,191.22 3.95,191.59 3.82,191.94 3.68,192.29 3.47,192.60 3.26,192.91 2.97,193.15 2.69,193.40 2.36,193.58 2.03,193.75 1.66,193.84 1.30,193.93 0.93,193.92 0.55,193.92 0.19,193.83 -0.17,193.74 -0.50,193.57 -0.83,193.39 -1.11,193.14 -1.39,192.89 -1.60,192.59 -1.81,192.28 -1.95,191.93 -2.08,191.57 -2.12,191.20 Z" fill="#1d1d1d" stroke="#1d1d1d" stroke-width="5" pointer-events="none"/></g><g id="9d0ed4e0-657d-4f04-0a07-eb736176fdf2_svg" class="tl-centered-g" transform="translate(37.80, 157.60) rotate(0.00, 48.00, 46.50)"><defs><mask id="9d0ed4e0-657d-4f04-0a07-eb736176fdf2_clip"><rect x="-100" y="-100" width="296" height="293" fill="white"/><rect x="48" y="46.5" width="0" height="0" rx="4" ry="4" fill="black" opacity="1"/></mask></defs><g pointer-events="none" opacity="1" mask=""><path d="M 1.67,-1.72 Q 1.67,-1.72 13.61,9.95 25.55,21.64 37.51,33.31 49.46,44.98 61.43,56.64 73.40,68.30 85.37,79.95 97.35,91.60 97.54,91.85 97.73,92.10 97.82,92.40 97.92,92.70 97.92,93.02 97.91,93.33 97.81,93.63 97.70,93.93 97.51,94.18 97.32,94.42 97.06,94.60 96.79,94.77 96.49,94.85 96.18,94.93 95.87,94.91 95.55,94.89 95.26,94.77 94.97,94.65 94.73,94.45 94.50,94.24 94.34,93.97 94.18,93.70 94.11,93.39 94.05,93.08 94.09,92.77 94.12,92.45 94.26,92.17 94.40,91.88 94.62,91.66 94.83,91.43 95.11,91.29 95.39,91.14 95.71,91.10 96.02,91.05 96.33,91.10 96.64,91.16 96.91,91.31 97.19,91.46 97.41,91.69 97.62,91.92 97.75,92.21 97.88,92.50 97.91,92.81 97.94,93.12 97.87,93.43 97.80,93.74 97.63,94.00 97.46,94.27 97.22,94.47 96.98,94.67 96.69,94.79 96.39,94.90 96.08,94.91 95.76,94.93 95.46,94.84 95.16,94.75 94.90,94.57 94.64,94.39 94.64,94.39 94.64,94.39 82.62,82.79 70.59,71.19 58.56,59.60 46.53,48.01 34.48,36.43 22.44,24.85 10.38,13.29 -1.67,1.72 -1.85,1.50 -2.03,1.27 -2.16,1.01 -2.28,0.75 -2.34,0.46 -2.39,0.18 -2.38,-0.10 -2.37,-0.39 -2.29,-0.67 -2.20,-0.95 -2.06,-1.20 -1.91,-1.45 -1.71,-1.66 -1.51,-1.86 -1.26,-2.02 -1.02,-2.17 -0.74,-2.26 -0.47,-2.35 -0.18,-2.38 0.10,-2.40 0.39,-2.35 0.67,-2.30 0.94,-2.19 1.21,-2.07 1.44,-1.90 Z" fill="#1d1d1d" stroke="#1d1d1d" stroke-width="4.54" stroke-dasharray="none" stroke-dashoffset="none" stroke-linecap="round" stroke-linejoin="round" pointer-events="stroke"/></g></g><g id="bcd77b05-07d1-4b03-10e3-845e5b30d1e7_svg" class="tl-centered-g" transform="translate(134.50, 81.60) rotate(0.00, 69.15, 83.80)"><defs><mask id="bcd77b05-07d1-4b03-10e3-845e5b30d1e7_clip"><rect x="-100" y="-100" width="338.3" height="367.6" fill="white"/><rect x="69.15" y="83.8" width="0" height="0" rx="4" ry="4" fill="black" opacity="1"/></mask></defs><g pointer-events="none" opacity="1" mask=""><path d="M -1.90,166.02 Q -1.90,166.02 15.44,145.12 32.79,124.22 50.12,103.31 67.45,82.40 84.78,61.48 102.10,40.56 119.41,19.63 136.72,-1.29 136.97,-1.51 137.22,-1.73 137.52,-1.85 137.83,-1.98 138.16,-2.00 138.49,-2.03 138.81,-1.94 139.13,-1.86 139.40,-1.68 139.68,-1.50 139.88,-1.24 140.08,-0.98 140.19,-0.66 140.30,-0.35 140.31,-0.02 140.31,0.30 140.21,0.61 140.11,0.92 139.91,1.19 139.72,1.46 139.45,1.64 139.18,1.83 138.86,1.93 138.54,2.02 138.21,2.01 137.88,1.99 137.58,1.88 137.27,1.76 137.01,1.55 136.76,1.34 136.59,1.06 136.41,0.78 136.34,0.46 136.26,0.13 136.29,-0.18 136.32,-0.51 136.46,-0.81 136.59,-1.12 136.81,-1.36 137.04,-1.60 137.33,-1.76 137.62,-1.92 137.94,-1.98 138.27,-2.03 138.59,-1.99 138.92,-1.94 139.21,-1.79 139.51,-1.64 139.74,-1.40 139.97,-1.16 140.11,-0.87 140.25,-0.57 140.29,-0.24 140.33,0.08 140.27,0.40 140.20,0.72 140.03,1.01 139.87,1.29 139.87,1.29 139.87,1.29 122.61,22.26 105.34,43.23 88.09,64.21 70.84,85.19 53.59,106.18 36.35,127.17 19.13,148.17 1.90,169.17 1.69,169.37 1.47,169.58 1.21,169.73 0.95,169.87 0.67,169.96 0.38,170.04 0.08,170.05 -0.21,170.06 -0.50,170.00 -0.79,169.94 -1.06,169.81 -1.33,169.68 -1.56,169.49 -1.79,169.30 -1.96,169.06 -2.14,168.82 -2.26,168.55 -2.37,168.27 -2.42,167.98 -2.47,167.68 -2.44,167.38 -2.41,167.09 -2.32,166.81 -2.22,166.52 -2.06,166.27 Z" fill="#1d1d1d" stroke="#1d1d1d" stroke-width="4.54" stroke-dasharray="none" stroke-dashoffset="none" stroke-linecap="round" stroke-linejoin="round" pointer-events="stroke"/></g></g><g id="2da9ba04-e27e-4231-3e5c-4c4377315bda_svg" class="tl-centered-g" transform="translate(38.70, 157.20) rotate(0.00, 44.60, 18.00)"><defs><mask id="2da9ba04-e27e-4231-3e5c-4c4377315bda_clip"><rect x="-100" y="-100" width="289.2" height="236" fill="white"/><rect x="44.6" y="18" width="0" height="0" rx="3.00" ry="3.00" fill="black" opacity="1"/></mask></defs><g pointer-events="none" opacity="1" mask=""><path d="M 0.82,-2.04 Q 0.82,-2.04 11.93,2.54 23.05,7.13 34.17,11.70 45.29,16.27 56.42,20.82 67.55,25.37 78.69,29.91 89.82,34.45 90.05,34.59 90.28,34.73 90.46,34.93 90.63,35.14 90.73,35.39 90.83,35.64 90.84,35.91 90.85,36.18 90.78,36.44 90.71,36.70 90.56,36.93 90.40,37.15 90.19,37.31 89.97,37.47 89.71,37.56 89.46,37.64 89.19,37.64 88.92,37.64 88.66,37.55 88.41,37.47 88.19,37.30 87.98,37.14 87.83,36.91 87.68,36.69 87.60,36.43 87.53,36.17 87.55,35.90 87.57,35.63 87.67,35.38 87.77,35.13 87.94,34.92 88.12,34.72 88.35,34.58 88.58,34.44 88.85,34.38 89.11,34.33 89.38,34.36 89.65,34.39 89.89,34.50 90.14,34.62 90.33,34.80 90.53,34.99 90.65,35.23 90.78,35.47 90.82,35.74 90.87,36.00 90.82,36.27 90.78,36.54 90.65,36.77 90.52,37.01 90.32,37.20 90.13,37.38 89.88,37.49 89.63,37.61 89.37,37.63 89.10,37.66 88.83,37.60 88.57,37.54 88.57,37.54 88.57,37.54 77.40,33.08 66.24,28.62 55.07,24.17 43.90,19.72 32.72,15.29 21.54,10.86 10.36,6.45 -0.82,2.04 -1.05,1.91 -1.29,1.78 -1.48,1.60 -1.68,1.42 -1.82,1.20 -1.97,0.98 -2.06,0.73 -2.15,0.48 -2.17,0.21 -2.20,-0.04 -2.16,-0.30 -2.13,-0.57 -2.03,-0.81 -1.93,-1.06 -1.77,-1.28 -1.61,-1.49 -1.41,-1.66 -1.21,-1.84 -0.97,-1.96 -0.73,-2.07 -0.47,-2.13 -0.21,-2.19 0.04,-2.18 0.31,-2.18 0.56,-2.11 Z" fill="#1d1d1d" stroke="#1d1d1d" stroke-width="4.54" stroke-dasharray="none" stroke-dashoffset="none" stroke-linecap="round" stroke-linejoin="round" pointer-events="stroke"/></g></g><g id="6620576f-3cac-407b-15a4-f51b0ee68461_svg" class="tl-centered-g" transform="translate(128.70, 81.40) rotate(0.00, 71.90, 55.50)"><defs><mask id="6620576f-3cac-407b-15a4-f51b0ee68461_clip"><rect x="-100" y="-100" width="343.8" height="311" fill="white"/><rect x="71.9" y="55.5" width="0" height="0" rx="4" ry="4" fill="black" opacity="1"/></mask></defs><g pointer-events="none" opacity="1" mask=""><path d="M -1.39,109.19 Q -1.39,109.19 16.63,95.38 34.66,81.58 52.68,67.76 70.70,53.94 88.70,40.11 106.71,26.27 124.71,12.43 142.71,-1.41 142.96,-1.54 143.21,-1.68 143.50,-1.73 143.78,-1.78 144.07,-1.73 144.35,-1.69 144.61,-1.55 144.86,-1.42 145.06,-1.21 145.26,-1.01 145.39,-0.74 145.51,-0.48 145.54,-0.20 145.57,0.08 145.51,0.36 145.45,0.64 145.31,0.89 145.16,1.14 144.94,1.33 144.72,1.51 144.46,1.62 144.19,1.73 143.90,1.75 143.62,1.77 143.34,1.69 143.06,1.62 142.82,1.46 142.58,1.30 142.40,1.07 142.23,0.84 142.13,0.57 142.04,0.30 142.04,0.01 142.03,-0.27 142.12,-0.54 142.21,-0.82 142.39,-1.05 142.56,-1.28 142.80,-1.44 143.04,-1.61 143.31,-1.69 143.59,-1.76 143.88,-1.75 144.17,-1.74 144.43,-1.63 144.70,-1.53 144.92,-1.34 145.14,-1.16 145.29,-0.91 145.45,-0.67 145.51,-0.39 145.57,-0.10 145.54,0.17 145.52,0.46 145.40,0.72 145.28,0.98 145.08,1.19 144.88,1.41 144.88,1.41 144.88,1.41 126.93,15.31 108.98,29.22 91.04,43.13 73.09,57.05 55.16,70.98 37.23,84.91 19.31,98.86 1.39,112.80 1.16,112.95 0.92,113.09 0.65,113.17 0.39,113.25 0.12,113.26 -0.15,113.28 -0.42,113.22 -0.69,113.17 -0.94,113.06 -1.19,112.94 -1.41,112.77 -1.62,112.60 -1.79,112.38 -1.96,112.16 -2.07,111.91 -2.18,111.66 -2.23,111.39 -2.28,111.12 -2.26,110.84 -2.24,110.57 -2.16,110.30 -2.07,110.04 -1.93,109.81 -1.78,109.57 -1.59,109.38 Z" fill="#1d1d1d" stroke="#1d1d1d" stroke-width="4.54" stroke-dasharray="none" stroke-dashoffset="none" stroke-linecap="round" stroke-linejoin="round" pointer-events="stroke"/></g></g><g id="ed6f9d3f-da94-4a6e-1f4d-ad22c21c0a83_svg" class="tl-centered-g" transform="translate(131.51, 103.99) rotate(0.00, 59.41, 69.21)"><defs><mask id="ed6f9d3f-da94-4a6e-1f4d-ad22c21c0a83_clip"><rect x="-100" y="-100" width="318.81" height="338.41" fill="white"/><rect x="59.40" y="69.21" width="0" height="0" rx="4" ry="4" fill="black" opacity="1"/></mask></defs><g pointer-events="none" opacity="1" mask=""><path d="M -1.84,136.83 Q -1.84,136.83 13.06,119.58 27.98,102.33 42.87,85.07 57.77,67.81 72.66,50.54 87.54,33.26 102.42,15.98 117.30,-1.29 117.54,-1.50 117.79,-1.70 118.09,-1.82 118.39,-1.94 118.71,-1.95 119.03,-1.97 119.34,-1.88 119.65,-1.79 119.91,-1.61 120.18,-1.43 120.37,-1.17 120.56,-0.92 120.67,-0.61 120.77,-0.31 120.77,0.01 120.76,0.33 120.66,0.63 120.56,0.93 120.36,1.19 120.16,1.44 119.90,1.62 119.63,1.80 119.32,1.89 119.01,1.97 118.69,1.95 118.37,1.93 118.07,1.81 117.77,1.69 117.53,1.48 117.28,1.27 117.12,1.00 116.96,0.72 116.89,0.41 116.82,0.09 116.86,-0.22 116.89,-0.54 117.03,-0.83 117.17,-1.12 117.39,-1.35 117.61,-1.58 117.90,-1.73 118.18,-1.88 118.50,-1.93 118.82,-1.98 119.13,-1.93 119.45,-1.87 119.73,-1.72 120.02,-1.57 120.24,-1.34 120.46,-1.10 120.59,-0.81 120.72,-0.52 120.75,-0.20 120.79,0.11 120.72,0.43 120.65,0.74 120.48,1.01 120.31,1.29 120.31,1.29 120.31,1.29 105.49,18.61 90.66,35.94 75.84,53.27 61.03,70.60 46.22,87.94 31.42,105.29 16.63,122.64 1.84,140.00 1.63,140.20 1.41,140.40 1.15,140.54 0.89,140.68 0.61,140.75 0.33,140.83 0.03,140.83 -0.25,140.84 -0.54,140.77 -0.82,140.70 -1.08,140.57 -1.35,140.44 -1.57,140.25 -1.79,140.06 -1.96,139.82 -2.13,139.58 -2.24,139.31 -2.35,139.03 -2.39,138.74 -2.43,138.45 -2.40,138.16 -2.37,137.87 -2.27,137.59 -2.17,137.32 -2.00,137.07 Z" fill="#1d1d1d" stroke="#1d1d1d" stroke-width="4.54" stroke-dasharray="none" stroke-dashoffset="none" stroke-linecap="round" stroke-linejoin="round" pointer-events="stroke"/></g></g><g id="8fe38d5d-ec38-4a4b-11dd-3ff3e1fc7149_svg" class="tl-centered-g" transform="translate(123.90, 113.59) rotate(0.00, 56.41, 62.01)"><defs><mask id="8fe38d5d-ec38-4a4b-11dd-3ff3e1fc7149_clip"><rect x="-100" y="-100" width="312.81" height="324.02" fill="white"/><rect x="56.40" y="62.01" width="0" height="0" rx="4" ry="4" fill="black" opacity="1"/></mask></defs><g pointer-events="none" opacity="1" mask=""><path d="M -1.62,122.54 Q -1.62,122.54 12.55,107.10 26.72,91.67 40.88,76.22 55.04,60.77 69.18,45.30 83.32,29.83 97.45,14.36 111.58,-1.11 111.79,-1.27 112.00,-1.44 112.25,-1.53 112.51,-1.62 112.77,-1.62 113.04,-1.63 113.29,-1.55 113.55,-1.47 113.76,-1.31 113.98,-1.15 114.13,-0.94 114.29,-0.72 114.37,-0.46 114.44,-0.21 114.43,0.05 114.42,0.32 114.33,0.57 114.24,0.82 114.07,1.02 113.90,1.23 113.67,1.37 113.45,1.52 113.19,1.58 112.93,1.64 112.66,1.62 112.40,1.59 112.15,1.49 111.91,1.38 111.71,1.20 111.51,1.02 111.38,0.79 111.25,0.55 111.20,0.29 111.15,0.03 111.19,-0.23 111.23,-0.49 111.35,-0.73 111.47,-0.97 111.66,-1.15 111.85,-1.34 112.09,-1.46 112.33,-1.58 112.60,-1.61 112.86,-1.64 113.12,-1.59 113.39,-1.54 113.62,-1.41 113.85,-1.27 114.03,-1.07 114.20,-0.87 114.31,-0.63 114.41,-0.38 114.43,-0.12 114.45,0.14 114.38,0.40 114.32,0.66 114.17,0.88 114.03,1.11 114.03,1.11 114.03,1.11 99.95,16.64 85.88,32.17 71.82,47.71 57.76,63.24 43.72,78.80 29.67,94.35 15.64,109.92 1.62,125.49 1.42,125.66 1.22,125.84 0.98,125.95 0.75,126.07 0.49,126.13 0.23,126.19 -0.02,126.19 -0.29,126.19 -0.54,126.12 -0.80,126.05 -1.03,125.93 -1.26,125.80 -1.46,125.62 -1.65,125.45 -1.80,125.23 -1.95,125.01 -2.04,124.76 -2.13,124.51 -2.16,124.25 -2.19,123.99 -2.15,123.72 -2.12,123.46 -2.02,123.22 -1.92,122.97 -1.77,122.76 Z" fill="#1d1d1d" stroke="#1d1d1d" stroke-width="4.54" stroke-dasharray="none" stroke-dashoffset="none" stroke-linecap="round" stroke-linejoin="round" pointer-events="stroke"/></g></g><g id="85fa92f8-4396-4beb-3ee2-92c060f62055_svg" class="tl-centered-g" transform="translate(117.50, 129.60) rotate(0.00, 50.60, 51.41)"><defs><mask id="85fa92f8-4396-4beb-3ee2-92c060f62055_clip"><rect x="-100" y="-100" width="301.21" height="302.81" fill="white"/><rect x="50.60" y="51.40" width="0" height="0" rx="4" ry="4" fill="black" opacity="1"/></mask></defs><g pointer-events="none" opacity="1" mask=""><path d="M -1.63,101.19 Q -1.63,101.19 11.08,88.41 23.79,75.62 36.49,62.82 49.19,50.02 61.88,37.20 74.57,24.39 87.25,11.56 99.93,-1.25 100.16,-1.43 100.39,-1.60 100.67,-1.68 100.95,-1.77 101.24,-1.77 101.53,-1.76 101.80,-1.66 102.08,-1.57 102.30,-1.38 102.53,-1.20 102.69,-0.96 102.85,-0.72 102.92,-0.44 102.99,-0.15 102.97,0.13 102.95,0.41 102.84,0.68 102.73,0.95 102.53,1.17 102.34,1.39 102.09,1.53 101.84,1.68 101.55,1.73 101.27,1.79 100.98,1.75 100.69,1.72 100.43,1.59 100.17,1.46 99.96,1.26 99.75,1.05 99.62,0.79 99.49,0.54 99.45,0.25 99.41,-0.03 99.46,-0.32 99.51,-0.60 99.66,-0.86 99.80,-1.11 100.01,-1.30 100.23,-1.50 100.49,-1.62 100.76,-1.73 101.05,-1.76 101.34,-1.79 101.62,-1.72 101.90,-1.65 102.15,-1.50 102.39,-1.34 102.58,-1.12 102.76,-0.89 102.86,-0.62 102.97,-0.35 102.98,-0.06 102.99,0.22 102.90,0.50 102.82,0.78 102.65,1.02 102.48,1.26 102.48,1.25 102.48,1.25 89.86,14.13 77.24,27.01 64.62,39.90 52.01,52.78 39.40,65.68 26.80,78.58 14.22,91.50 1.63,104.42 1.41,104.59 1.20,104.76 0.95,104.88 0.70,104.99 0.42,105.04 0.15,105.10 -0.11,105.08 -0.39,105.07 -0.66,104.99 -0.92,104.91 -1.16,104.76 -1.40,104.62 -1.59,104.43 -1.79,104.24 -1.94,104.00 -2.08,103.76 -2.17,103.50 -2.25,103.24 -2.27,102.96 -2.29,102.68 -2.24,102.41 -2.19,102.14 -2.08,101.89 -1.97,101.63 -1.80,101.41 Z" fill="#1d1d1d" stroke="#1d1d1d" stroke-width="4.54" stroke-dasharray="none" stroke-dashoffset="none" stroke-linecap="round" stroke-linejoin="round" pointer-events="stroke"/></g></g><g id="aa112ce6-73c2-4a85-36ec-5952794156da_svg" class="tl-centered-g" transform="translate(113.50, 143.20) rotate(0.00, 43.80, 41.20)"><defs><mask id="aa112ce6-73c2-4a85-36ec-5952794156da_clip"><rect x="-100" y="-100" width="287.61" height="282.40" fill="white"/><rect x="43.80" y="41.20" width="0" height="0" rx="3.75" ry="3.75" fill="black" opacity="1"/></mask></defs><g pointer-events="none" opacity="1" mask=""><path d="M -1.63,80.67 Q -1.63,80.67 9.37,70.43 20.38,60.19 31.38,49.94 42.37,39.68 53.36,29.42 64.34,19.15 75.32,8.87 86.29,-1.39 86.55,-1.56 86.81,-1.74 87.11,-1.82 87.40,-1.90 87.71,-1.88 88.02,-1.87 88.31,-1.75 88.60,-1.63 88.83,-1.43 89.07,-1.23 89.23,-0.96 89.39,-0.70 89.45,-0.40 89.52,-0.09 89.48,0.21 89.45,0.51 89.32,0.80 89.19,1.08 88.97,1.30 88.76,1.53 88.48,1.67 88.21,1.81 87.90,1.86 87.60,1.91 87.29,1.86 86.99,1.81 86.71,1.66 86.44,1.52 86.23,1.29 86.01,1.06 85.89,0.78 85.76,0.50 85.72,0.19 85.69,-0.11 85.76,-0.41 85.83,-0.71 85.99,-0.98 86.15,-1.24 86.39,-1.44 86.62,-1.64 86.91,-1.75 87.20,-1.87 87.51,-1.88 87.82,-1.90 88.12,-1.82 88.42,-1.73 88.67,-1.56 88.93,-1.38 89.12,-1.13 89.30,-0.89 89.40,-0.59 89.50,-0.30 89.50,0.00 89.50,0.31 89.40,0.61 89.30,0.90 89.11,1.15 88.92,1.39 88.92,1.39 88.92,1.39 77.99,11.72 67.06,22.04 56.15,32.38 45.23,42.72 34.32,53.06 23.41,63.41 12.52,73.78 1.63,84.14 1.40,84.31 1.17,84.48 0.90,84.59 0.63,84.70 0.35,84.74 0.07,84.79 -0.21,84.76 -0.50,84.74 -0.77,84.64 -1.04,84.55 -1.28,84.39 -1.52,84.24 -1.72,84.03 -1.92,83.82 -2.06,83.57 -2.20,83.32 -2.27,83.04 -2.35,82.76 -2.36,82.48 -2.37,82.19 -2.31,81.91 -2.25,81.63 -2.12,81.37 -2.00,81.11 -1.81,80.89 Z" fill="#1d1d1d" stroke="#1d1d1d" stroke-width="4.54" stroke-dasharray="none" stroke-dashoffset="none" stroke-linecap="round" stroke-linejoin="round" pointer-events="stroke"/></g></g><g id="43bc8ae0-8b05-4549-2f58-a6352b054c90_svg" class="tl-centered-g" transform="translate(106.30, 162.00) rotate(0.00, 33.20, 29.20)"><defs><mask id="43bc8ae0-8b05-4549-2f58-a6352b054c90_clip"><rect x="-100" y="-100" width="266.40" height="258.40" fill="white"/><rect x="33.20" y="29.20" width="0" height="0" rx="2.76" ry="2.76" fill="black" opacity="1"/></mask></defs><g pointer-events="none" opacity="1" mask=""><path d="M -1.52,56.67 Q -1.52,56.67 6.83,49.44 15.19,42.21 23.54,34.96 31.89,27.71 40.22,20.44 48.55,13.18 56.88,5.91 65.21,-1.36 65.46,-1.51 65.70,-1.67 65.99,-1.74 66.28,-1.81 66.57,-1.78 66.86,-1.75 67.13,-1.63 67.40,-1.51 67.61,-1.32 67.83,-1.12 67.97,-0.86 68.11,-0.60 68.17,-0.32 68.22,-0.03 68.18,0.25 68.13,0.54 68.00,0.81 67.87,1.07 67.66,1.27 67.45,1.48 67.18,1.61 66.92,1.74 66.63,1.77 66.34,1.81 66.05,1.75 65.76,1.69 65.51,1.55 65.25,1.40 65.06,1.18 64.87,0.96 64.75,0.69 64.64,0.42 64.62,0.12 64.60,-0.16 64.67,-0.44 64.75,-0.73 64.91,-0.97 65.07,-1.22 65.30,-1.40 65.53,-1.58 65.80,-1.68 66.08,-1.78 66.37,-1.79 66.67,-1.79 66.95,-1.70 67.23,-1.61 67.46,-1.44 67.70,-1.27 67.87,-1.03 68.04,-0.78 68.12,-0.50 68.21,-0.22 68.19,0.06 68.18,0.36 68.08,0.63 67.98,0.90 67.79,1.13 67.60,1.36 67.60,1.36 67.60,1.36 59.33,8.69 51.05,16.02 42.78,23.36 34.51,30.69 26.26,38.05 18.00,45.40 9.76,52.77 1.52,60.14 1.29,60.30 1.06,60.45 0.80,60.55 0.54,60.65 0.26,60.68 -0.00,60.71 -0.28,60.68 -0.56,60.65 -0.82,60.55 -1.08,60.45 -1.30,60.29 -1.53,60.13 -1.72,59.92 -1.90,59.71 -2.03,59.46 -2.16,59.22 -2.22,58.95 -2.29,58.68 -2.29,58.40 -2.29,58.12 -2.22,57.85 -2.15,57.58 -2.02,57.33 -1.89,57.09 -1.71,56.88 Z" fill="#1d1d1d" stroke="#1d1d1d" stroke-width="4.54" stroke-dasharray="none" stroke-dashoffset="none" stroke-linecap="round" stroke-linejoin="round" pointer-events="stroke"/></g></g><g id="8087c0f2-bbab-41ef-02c9-bd1e384c5392_svg" class="tl-centered-g" transform="translate(53.10, 165.20) rotate(0.00, 27.41, 25.20)"><defs><mask id="8087c0f2-bbab-41ef-02c9-bd1e384c5392_clip"><rect x="-100" y="-100" width="254.81" height="250.41" fill="white"/><rect x="27.40" y="25.20" width="0" height="0" rx="2.32" ry="2.32" fill="black" opacity="1"/></mask></defs><g pointer-events="none" opacity="1" mask=""><path d="M 1.76,-1.91 Q 1.76,-1.91 8.56,4.43 15.37,10.78 22.18,17.12 29.00,23.46 35.82,29.79 42.65,36.12 49.48,42.45 56.31,48.77 56.53,49.05 56.75,49.33 56.87,49.67 56.99,50.01 57.00,50.37 57.00,50.73 56.89,51.08 56.78,51.42 56.57,51.71 56.36,52.00 56.06,52.20 55.77,52.41 55.42,52.51 55.08,52.61 54.72,52.60 54.36,52.58 54.02,52.46 53.69,52.33 53.41,52.10 53.13,51.87 52.94,51.56 52.75,51.26 52.67,50.91 52.59,50.56 52.62,50.20 52.65,49.84 52.80,49.51 52.95,49.18 53.19,48.92 53.43,48.65 53.75,48.48 54.06,48.31 54.42,48.25 54.77,48.18 55.13,48.23 55.48,48.29 55.80,48.45 56.12,48.62 56.38,48.87 56.63,49.13 56.78,49.45 56.94,49.78 56.98,50.14 57.03,50.49 56.95,50.85 56.88,51.20 56.70,51.51 56.52,51.82 56.25,52.06 55.98,52.29 55.65,52.43 55.31,52.57 54.96,52.59 54.60,52.62 54.25,52.53 53.90,52.44 53.60,52.24 53.30,52.04 53.30,52.04 53.30,52.04 46.43,45.76 39.56,39.48 32.68,33.21 25.80,26.94 18.92,20.67 12.03,14.41 5.13,8.16 -1.76,1.91 -1.96,1.67 -2.17,1.43 -2.31,1.15 -2.45,0.87 -2.52,0.57 -2.59,0.26 -2.58,-0.04 -2.58,-0.36 -2.49,-0.66 -2.41,-0.96 -2.26,-1.24 -2.11,-1.51 -1.90,-1.75 -1.69,-1.98 -1.42,-2.15 -1.16,-2.32 -0.87,-2.43 -0.57,-2.54 -0.26,-2.57 0.04,-2.60 0.35,-2.56 0.67,-2.51 0.96,-2.40 1.25,-2.28 1.50,-2.10 Z" fill="#1d1d1d" stroke="#1d1d1d" stroke-width="4.54" stroke-dasharray="none" stroke-dashoffset="none" stroke-linecap="round" stroke-linejoin="round" pointer-events="stroke"/></g></g><g id="a6933731-91ad-43bf-310b-b458c3dbe6b5_svg" class="tl-centered-g" transform="translate(67.10, 170.00) rotate(0.00, 27.00, 23.41)"><defs><mask id="a6933731-91ad-43bf-310b-b458c3dbe6b5_clip"><rect x="-100" y="-100" width="254.01" height="246.81" fill="white"/><rect x="27.00" y="23.40" width="0" height="0" rx="2.23" ry="2.23" fill="black" opacity="1"/></mask></defs><g pointer-events="none" opacity="1" mask=""><path d="M 1.66,-1.91 Q 1.66,-1.91 8.36,3.99 15.06,9.90 21.77,15.79 28.49,21.68 35.21,27.57 41.94,33.45 48.67,39.32 55.40,45.20 55.62,45.46 55.84,45.73 55.96,46.05 56.09,46.37 56.10,46.71 56.12,47.06 56.02,47.39 55.93,47.72 55.73,48.00 55.53,48.28 55.26,48.49 54.98,48.69 54.66,48.80 54.33,48.91 53.98,48.90 53.64,48.90 53.31,48.79 52.99,48.67 52.72,48.46 52.45,48.25 52.26,47.97 52.07,47.68 51.98,47.35 51.89,47.01 51.91,46.67 51.93,46.33 52.06,46.01 52.19,45.69 52.42,45.43 52.64,45.17 52.94,45.00 53.24,44.82 53.57,44.75 53.91,44.68 54.25,44.72 54.59,44.76 54.91,44.91 55.22,45.06 55.46,45.30 55.71,45.54 55.87,45.84 56.03,46.15 56.08,46.49 56.13,46.83 56.07,47.17 56.01,47.50 55.85,47.81 55.69,48.11 55.43,48.34 55.18,48.58 54.87,48.72 54.55,48.86 54.21,48.89 53.87,48.93 53.53,48.85 53.20,48.77 52.90,48.59 52.61,48.41 52.61,48.41 52.61,48.41 45.84,42.58 39.07,36.76 32.29,30.94 25.51,25.12 18.72,19.31 11.94,13.50 5.14,7.70 -1.66,1.91 -1.86,1.68 -2.07,1.46 -2.21,1.19 -2.36,0.92 -2.43,0.62 -2.51,0.33 -2.51,0.02 -2.52,-0.27 -2.45,-0.57 -2.38,-0.87 -2.24,-1.14 -2.10,-1.41 -1.90,-1.64 -1.70,-1.87 -1.45,-2.05 -1.20,-2.23 -0.91,-2.34 -0.63,-2.45 -0.33,-2.49 -0.02,-2.53 0.27,-2.50 0.58,-2.46 0.86,-2.36 1.15,-2.25 1.40,-2.08 Z" fill="#1d1d1d" stroke="#1d1d1d" stroke-width="4.54" stroke-dasharray="none" stroke-dashoffset="none" stroke-linecap="round" stroke-linejoin="round" pointer-events="stroke"/></g></g><g id="aca53c2c-39b7-4a6f-289e-996166e13196_svg" class="tl-centered-g" transform="translate(85.10, 178.40) rotate(0.00, 19.40, 15.80)"><defs><mask id="aca53c2c-39b7-4a6f-289e-996166e13196_clip"><rect x="-100" y="-100" width="238.8" height="231.6" fill="white"/><rect x="19.4" y="15.8" width="0" height="0" rx="2" ry="2" fill="black" opacity="1"/></mask></defs><g pointer-events="none" opacity="1" mask=""><path d="M 1.65,-2.02 Q 1.65,-2.02 6.45,1.97 11.26,5.98 16.07,9.97 20.89,13.96 25.72,17.94 30.54,21.92 35.37,25.89 40.21,29.86 40.45,30.13 40.69,30.40 40.83,30.74 40.97,31.07 41.00,31.43 41.02,31.79 40.93,32.14 40.84,32.49 40.65,32.80 40.45,33.10 40.17,33.32 39.88,33.55 39.54,33.67 39.20,33.79 38.84,33.80 38.48,33.81 38.13,33.70 37.79,33.59 37.50,33.38 37.20,33.17 36.99,32.87 36.79,32.58 36.68,32.23 36.58,31.88 36.59,31.52 36.60,31.16 36.73,30.82 36.86,30.48 37.08,30.20 37.31,29.92 37.62,29.73 37.93,29.54 38.28,29.45 38.63,29.37 38.99,29.40 39.35,29.43 39.68,29.57 40.01,29.72 40.28,29.96 40.55,30.21 40.72,30.52 40.90,30.84 40.96,31.19 41.03,31.55 40.98,31.91 40.93,32.27 40.76,32.59 40.60,32.91 40.34,33.17 40.09,33.42 39.76,33.58 39.44,33.74 39.08,33.78 38.72,33.83 38.36,33.76 38.01,33.69 37.70,33.51 37.38,33.33 37.38,33.33 37.38,33.33 32.52,29.40 27.65,25.47 22.77,21.55 17.90,17.63 13.02,13.72 8.13,9.81 3.24,5.92 -1.65,2.02 -1.86,1.80 -2.08,1.57 -2.24,1.30 -2.40,1.02 -2.49,0.72 -2.58,0.42 -2.59,0.10 -2.60,-0.20 -2.54,-0.51 -2.48,-0.82 -2.34,-1.10 -2.21,-1.39 -2.01,-1.63 -1.81,-1.88 -1.56,-2.07 -1.30,-2.26 -1.02,-2.38 -0.73,-2.51 -0.41,-2.56 -0.10,-2.61 0.20,-2.58 0.52,-2.56 0.81,-2.46 1.11,-2.36 1.38,-2.19 Z" fill="#1d1d1d" stroke="#1d1d1d" stroke-width="4.54" stroke-dasharray="none" stroke-dashoffset="none" stroke-linecap="round" stroke-linejoin="round" pointer-events="stroke"/></g></g><g id="b3660fc2-da08-4d40-1086-e36661fd3841_svg" class="tl-centered-g" transform="translate(98.70, 182.80) rotate(0.00, 13.80, 9.00)"><defs><mask id="b3660fc2-da08-4d40-1086-e36661fd3841_clip"><rect x="-100" y="-100" width="227.6" height="218" fill="white"/><rect x="13.8" y="9" width="0" height="0" rx="2" ry="2" fill="black" opacity="1"/></mask></defs><g pointer-events="none" opacity="1" mask=""><path d="M 1.32,-2.03 Q 1.32,-2.03 4.72,0.28 8.13,2.60 11.54,4.91 14.96,7.21 18.38,9.50 21.81,11.79 25.24,14.06 28.67,16.34 28.91,16.56 29.14,16.77 29.30,17.05 29.45,17.33 29.51,17.65 29.57,17.96 29.52,18.28 29.48,18.59 29.33,18.88 29.19,19.16 28.96,19.38 28.73,19.61 28.44,19.75 28.16,19.89 27.84,19.93 27.52,19.97 27.21,19.90 26.90,19.84 26.62,19.68 26.34,19.52 26.13,19.28 25.92,19.04 25.80,18.75 25.68,18.45 25.65,18.13 25.63,17.82 25.71,17.51 25.79,17.20 25.96,16.93 26.14,16.66 26.39,16.47 26.64,16.27 26.94,16.16 27.24,16.05 27.56,16.05 27.88,16.04 28.18,16.14 28.49,16.24 28.75,16.42 29.00,16.61 29.19,16.87 29.37,17.13 29.46,17.44 29.55,17.75 29.54,18.07 29.53,18.39 29.42,18.68 29.30,18.98 29.10,19.23 28.90,19.48 28.63,19.65 28.36,19.81 28.05,19.89 27.74,19.96 27.42,19.93 27.10,19.91 26.81,19.78 26.52,19.65 26.52,19.65 26.52,19.65 23.05,17.43 19.58,15.20 16.11,12.99 12.63,10.78 9.15,8.58 5.66,6.39 2.17,4.21 -1.32,2.03 -1.54,1.84 -1.77,1.65 -1.94,1.41 -2.11,1.18 -2.22,0.91 -2.33,0.64 -2.38,0.35 -2.42,0.06 -2.39,-0.22 -2.36,-0.51 -2.27,-0.79 -2.17,-1.06 -2.01,-1.31 -1.85,-1.55 -1.64,-1.75 -1.42,-1.95 -1.17,-2.10 -0.91,-2.24 -0.63,-2.32 -0.35,-2.39 -0.06,-2.40 0.22,-2.41 0.51,-2.35 0.80,-2.28 1.06,-2.15 Z" fill="#1d1d1d" stroke="#1d1d1d" stroke-width="4.54" stroke-dasharray="none" stroke-dashoffset="none" stroke-linecap="round" stroke-linejoin="round" pointer-events="stroke"/></g></g></svg>